# xmcd
#
# Track frame offsets:
#	150
#	21468
#	44795
#	64589
#	81819
#	107596
#	126704
#	144545
#	163131
#	185701
#	208799
#
# Disc length: 2986 seconds
#
# Revision: 0
# Processed by: cddbd v1.5.2PL0 Copyright (c) Steve Scherf et al.
# Submitted via: EasyCDDAExtractor 2010.4.0.0
#
DISCID=ad0ba80b
DTITLE=Biber Herrmann - Love and Good Reasons
DYEAR=2010
DGENRE=Blues
TTITLE0=Lines For A Wedding Song
TTITLE1=Angels In The Rain
TTITLE2=Big Nothing
TTITLE3=Have A Little Faith
TTITLE4=Soviet Baby Blues
TTITLE5=One Good Reason
TTITLE6=Song For Rose
TTITLE7=World On Death Row
TTITLE8=Love Is A Caravan
TTITLE9=Big Nothing Revisited
TTITLE10=Leaving Town Blues
EXTD=
EXTT0=
EXTT1=
EXTT2=
EXTT3=
EXTT4=
EXTT5=
EXTT6=
EXTT7=
EXTT8=
EXTT9=
EXTT10=
PLAYORDER=
